<svg width="20" height="20" viewBox="0 0 20 20" fill="none" xmlns="http://www.w3.org/2000/svg">
<path d="M18.4686 0.000139831H1.52859C1.33817 -0.00250479 1.14909 0.0323873 0.972159 0.102824C0.795224 0.17326 0.633897 0.27786 0.497391 0.410652C0.360885 0.543443 0.251875 0.701824 0.176586 0.876749C0.101296 1.05167 0.0612021 1.23972 0.0585938 1.43014V18.5701C0.0612021 18.7606 0.101296 18.9486 0.176586 19.1235C0.251875 19.2985 0.360885 19.4568 0.497391 19.5896C0.633897 19.7224 0.795224 19.827 0.972159 19.8975C1.14909 19.9679 1.33817 20.0028 1.52859 20.0001H18.4686C18.659 20.0028 18.8481 19.9679 19.025 19.8975C19.202 19.827 19.3633 19.7224 19.4998 19.5896C19.6363 19.4568 19.7453 19.2985 19.8206 19.1235C19.8959 18.9486 19.936 18.7606 19.9386 18.5701V1.43014C19.936 1.23972 19.8959 1.05167 19.8206 0.876749C19.7453 0.701824 19.6363 0.543443 19.4998 0.410652C19.3633 0.27786 19.202 0.17326 19.025 0.102824C18.8481 0.0323873 18.659 -0.00250479 18.4686 0.000139831ZM6.08859 16.7401H3.08859V7.74014H6.08859V16.7401ZM4.58859 6.48014C4.17486 6.48014 3.77806 6.31578 3.48551 6.02323C3.19295 5.73067 3.02859 5.33388 3.02859 4.92014C3.02859 4.5064 3.19295 4.10961 3.48551 3.81705C3.77806 3.5245 4.17486 3.36014 4.58859 3.36014C4.80829 3.33522 5.03077 3.35699 5.24147 3.42402C5.45217 3.49105 5.64633 3.60183 5.81125 3.7491C5.97617 3.89637 6.10812 4.07682 6.19846 4.27862C6.28881 4.48043 6.33551 4.69904 6.33551 4.92014C6.33551 5.14124 6.28881 5.35985 6.19846 5.56166C6.10812 5.76346 5.97617 5.94391 5.81125 6.09118C5.64633 6.23845 5.45217 6.34923 5.24147 6.41626C5.03077 6.48329 4.80829 6.50505 4.58859 6.48014ZM16.9086 16.7401H13.9086V11.9101C13.9086 10.7001 13.4786 9.91014 12.3886 9.91014C12.0513 9.91261 11.7228 10.0184 11.4474 10.2133C11.1721 10.4082 10.9631 10.6828 10.8486 11.0001C10.7703 11.2352 10.7364 11.4827 10.7486 11.7301V16.7301H7.74859C7.74859 16.7301 7.74859 8.55014 7.74859 7.73014H10.7486V9.00014C11.0211 8.52725 11.4175 8.13766 11.895 7.87334C12.3726 7.60902 12.9132 7.47999 13.4586 7.50014C15.4586 7.50014 16.9086 8.79014 16.9086 11.5601V16.7401Z" fill="#3375B0"/>
</svg>
